<svg xmlns="http://www.w3.org/2000/svg" width="1200" height="800" viewBox="0 0 1200 800">
  <defs>
    <linearGradient id="bg3" x1="0%" y1="0%" x2="100%" y2="100%">
      <stop offset="0%" style="stop-color:#4a148c"/>
      <stop offset="50%" style="stop-color:#311b92"/>
      <stop offset="100%" style="stop-color:#1a0a4a"/>
    </linearGradient>
    <radialGradient id="gl3a" cx="40%" cy="30%" r="50%">
      <stop offset="0%" style="stop-color:#a855f7;stop-opacity:0.2"/>
      <stop offset="100%" style="stop-color:#311b92;stop-opacity:0"/>
    </radialGradient>
    <radialGradient id="gl3b" cx="80%" cy="70%" r="35%">
      <stop offset="0%" style="stop-color:#c084fc;stop-opacity:0.12"/>
      <stop offset="100%" style="stop-color:#311b92;stop-opacity:0"/>
    </radialGradient>
  </defs>
  <rect width="1200" height="800" fill="url(#bg3)"/>
  <rect width="1200" height="800" fill="url(#gl3a)"/>
  <rect width="1200" height="800" fill="url(#gl3b)"/>
  <circle cx="600" cy="400" r="320" fill="rgba(255,255,255,0.02)"/>
  <circle cx="100" cy="700" r="200" fill="rgba(255,255,255,0.02)"/>
  <circle cx="1100" cy="150" r="180" fill="rgba(255,255,255,0.02)"/>
  <rect x="150" y="200" width="380" height="350" rx="20" fill="rgba(255,255,255,0.03)"/>
  <circle cx="340" cy="310" r="60" fill="rgba(168,85,247,0.15)" stroke="rgba(255,255,255,0.06)" stroke-width="2"/>
  <circle cx="340" cy="310" r="25" fill="rgba(255,255,255,0.06)"/>
  <rect x="190" y="400" width="300" height="16" rx="3" fill="rgba(255,255,255,0.05)"/>
  <rect x="190" y="430" width="240" height="12" rx="3" fill="rgba(255,255,255,0.03)"/>
  <rect x="190" y="460" width="260" height="12" rx="3" fill="rgba(255,255,255,0.03)"/>
  <rect x="190" y="490" width="140" height="32" rx="8" fill="rgba(168,85,247,0.2)"/>
  <rect x="700" y="300" width="350" height="200" rx="16" fill="rgba(255,255,255,0.03)"/>
  <rect x="730" y="330" width="120" height="20" rx="4" fill="rgba(255,255,255,0.06)"/>
  <rect x="730" y="370" width="290" height="40" rx="8" fill="rgba(255,255,255,0.04)"/>
  <rect x="730" y="430" width="290" height="2" fill="rgba(255,255,255,0.05)"/>
  <rect x="730" y="450" width="140" height="14" rx="3" fill="rgba(255,255,255,0.04)"/>
  <rect x="900" y="450" width="120" height="14" rx="3" fill="rgba(168,85,247,0.12)"/>
  <path d="M580 620 Q600 560 620 620 Q640 560 660 620 Q680 560 700 620" fill="none" stroke="rgba(255,255,255,0.06)" stroke-width="2"/>
  <path d="M800 620 Q820 580 840 620 Q860 570 880 620 Q900 590 920 620" fill="none" stroke="rgba(168,85,247,0.1)" stroke-width="2"/>
</svg>
