<svg xmlns="http://www.w3.org/2000/svg" width="1200" height="800" viewBox="0 0 1200 800">
  <defs>
    <linearGradient id="bg2" x1="0%" y1="0%" x2="100%" y2="100%">
      <stop offset="0%" style="stop-color:#1e3a5f"/>
      <stop offset="50%" style="stop-color:#1a237e"/>
      <stop offset="100%" style="stop-color:#0d1642"/>
    </linearGradient>
    <radialGradient id="gl2a" cx="25%" cy="35%" r="45%">
      <stop offset="0%" style="stop-color:#3b82f6;stop-opacity:0.25"/>
      <stop offset="100%" style="stop-color:#1a237e;stop-opacity:0"/>
    </radialGradient>
    <radialGradient id="gl2b" cx="75%" cy="65%" r="40%">
      <stop offset="0%" style="stop-color:#818cf8;stop-opacity:0.15"/>
      <stop offset="100%" style="stop-color:#1a237e;stop-opacity:0"/>
    </radialGradient>
  </defs>
  <rect width="1200" height="800" fill="url(#bg2)"/>
  <rect width="1200" height="800" fill="url(#gl2a)"/>
  <rect width="1200" height="800" fill="url(#gl2b)"/>
  <circle cx="150" cy="150" r="250" fill="rgba(255,255,255,0.02)"/>
  <circle cx="1050" cy="650" r="300" fill="rgba(255,255,255,0.02)"/>
  <circle cx="700" cy="200" r="150" fill="rgba(255,255,255,0.02)"/>
  <rect x="650" y="250" width="420" height="300" rx="20" fill="rgba(255,255,255,0.03)"/>
  <rect x="680" y="280" width="200" height="24" rx="4" fill="rgba(255,255,255,0.06)"/>
  <rect x="680" y="320" width="360" height="16" rx="3" fill="rgba(255,255,255,0.04)"/>
  <rect x="680" y="350" width="300" height="16" rx="3" fill="rgba(255,255,255,0.03)"/>
  <rect x="680" y="390" width="150" height="36" rx="8" fill="rgba(59,130,246,0.2)"/>
  <rect x="850" y="390" width="150" height="36" rx="8" fill="rgba(255,255,255,0.05)"/>
  <rect x="680" y="450" width="360" height="2" fill="rgba(255,255,255,0.06)"/>
  <rect x="680" y="470" width="180" height="14" rx="3" fill="rgba(255,255,255,0.04)"/>
  <rect x="680" y="500" width="240" height="14" rx="3" fill="rgba(255,255,255,0.03)"/>
  <circle cx="300" cy="400" r="140" fill="rgba(255,255,255,0.03)" stroke="rgba(255,255,255,0.05)" stroke-width="2"/>
  <path d="M260 400 L300 360 L340 400 L300 440 Z" fill="rgba(59,130,246,0.15)" stroke="rgba(255,255,255,0.08)" stroke-width="1.5"/>
  <circle cx="300" cy="400" r="30" fill="rgba(255,255,255,0.06)"/>
</svg>
