<svg xmlns="http://www.w3.org/2000/svg" width="1200" height="800" viewBox="0 0 1200 800">
  <defs>
    <linearGradient id="bg1" x1="0%" y1="0%" x2="100%" y2="100%">
      <stop offset="0%" style="stop-color:#065f46"/>
      <stop offset="50%" style="stop-color:#064e3b"/>
      <stop offset="100%" style="stop-color:#022c22"/>
    </linearGradient>
    <radialGradient id="glow1" cx="30%" cy="40%" r="50%">
      <stop offset="0%" style="stop-color:#10b981;stop-opacity:0.3"/>
      <stop offset="100%" style="stop-color:#065f46;stop-opacity:0"/>
    </radialGradient>
    <radialGradient id="glow2" cx="70%" cy="60%" r="40%">
      <stop offset="0%" style="stop-color:#34d399;stop-opacity:0.15"/>
      <stop offset="100%" style="stop-color:#065f46;stop-opacity:0"/>
    </radialGradient>
  </defs>
  <rect width="1200" height="800" fill="url(#bg1)"/>
  <rect width="1200" height="800" fill="url(#glow1)"/>
  <rect width="1200" height="800" fill="url(#glow2)"/>
  <circle cx="200" cy="200" r="300" fill="rgba(255,255,255,0.03)"/>
  <circle cx="1000" cy="600" r="350" fill="rgba(255,255,255,0.02)"/>
  <circle cx="600" cy="100" r="200" fill="rgba(255,255,255,0.02)"/>
  <rect x="100" y="300" width="400" height="250" rx="20" fill="rgba(255,255,255,0.04)"/>
  <rect x="120" y="320" width="360" height="30" rx="6" fill="rgba(255,255,255,0.06)"/>
  <rect x="120" y="370" width="280" height="20" rx="4" fill="rgba(255,255,255,0.04)"/>
  <rect x="120" y="400" width="320" height="20" rx="4" fill="rgba(255,255,255,0.04)"/>
  <rect x="120" y="440" width="160" height="40" rx="8" fill="rgba(16,185,129,0.2)"/>
  <circle cx="850" cy="350" r="120" fill="rgba(255,255,255,0.03)" stroke="rgba(255,255,255,0.06)" stroke-width="2"/>
  <circle cx="850" cy="350" r="80" fill="rgba(255,255,255,0.04)"/>
  <text x="850" y="340" text-anchor="middle" fill="rgba(255,255,255,0.15)" font-size="36" font-family="Arial" font-weight="bold">N$</text>
  <text x="850" y="375" text-anchor="middle" fill="rgba(255,255,255,0.12)" font-size="20" font-family="Arial">8,000</text>
  <line x1="700" y1="550" x2="1000" y2="550" stroke="rgba(255,255,255,0.05)" stroke-width="2"/>
  <line x1="700" y1="580" x2="950" y2="580" stroke="rgba(255,255,255,0.04)" stroke-width="2"/>
  <line x1="700" y1="610" x2="1000" y2="610" stroke="rgba(255,255,255,0.03)" stroke-width="2"/>
</svg>
